<svg width="58" height="58" viewBox="0 0 58 58" fill="none" xmlns="http://www.w3.org/2000/svg">
<path d="M34.4398 9.06161C31.0855 9.06163 27.835 10.2247 25.2421 12.3527C22.6491 14.4806 20.8743 17.4418 20.2199 20.7317C19.5655 24.0216 20.0721 27.4366 21.6533 30.3948C23.2346 33.3531 25.7926 35.6715 28.8916 36.9551C31.9906 38.2388 35.4388 38.4082 38.6487 37.4344C41.8586 36.4607 44.6315 34.4041 46.4951 31.6151C48.3586 28.8261 49.1974 25.4772 48.8687 22.139C48.5399 18.8008 47.0638 15.68 44.6919 13.3081C43.3488 11.9575 41.751 10.8868 39.9913 10.1578C38.2315 9.42892 36.3446 9.05632 34.4398 9.06161ZM34.4398 0C47.4523 0 58 10.5477 58 23.5602C58 36.5726 47.4523 47.1204 34.4398 47.1204C21.4274 47.1204 10.8796 36.5726 10.8796 23.5602C10.8796 10.5477 21.4274 0 34.4398 0Z" fill="#FC5050"/>
<path opacity="0.6" d="M0.788774 50.1448L12.0818 38.8517C12.3349 38.5995 12.6353 38.3997 12.9657 38.2636C13.2961 38.1275 13.6501 38.058 14.0074 38.0588H15.8537L19.9314 42.1366V43.9829C19.9323 44.3402 19.8627 44.6942 19.7267 45.0246C19.5906 45.355 19.3908 45.6554 19.1385 45.9085L7.8455 57.2015C7.59391 57.4546 7.29477 57.6554 6.96527 57.7925C6.63578 57.9295 6.28244 58.0001 5.92557 58.0001C5.56871 58.0001 5.21537 57.9295 4.88588 57.7925C4.55638 57.6554 4.25723 57.4546 4.00564 57.2015L0.800102 53.996C0.289785 53.4857 0.00213814 52.7943 1.52588e-05 52.0727C-0.00210571 51.3511 0.281467 50.658 0.788774 50.1448Z" fill="#FC5050"/>
</svg>
